<svg id="Capa_1" enable-background="new 0 0 512 512" height="512" viewBox="0 0 512 512" width="512" xmlns="http://www.w3.org/2000/svg"><g><g><path d="m218.06 171.031c-1.764-5.43-6.457-9.387-12.107-10.208l-50.562-7.349-22.611-45.815c-2.527-5.12-7.742-8.361-13.451-8.361-5.71 0-10.924 3.241-13.451 8.361l-22.611 45.815-50.563 7.349c-5.65.82-10.345 4.778-12.109 10.209-1.764 5.43-.293 11.391 3.796 15.376l36.587 35.665-8.637 50.354c-.966 5.628 1.348 11.315 5.967 14.671 2.613 1.899 5.708 2.865 8.818 2.865 2.387 0 4.784-.569 6.979-1.723l45.225-23.776 45.224 23.776c2.194 1.153 4.591 1.723 6.979 1.723h.046c8.273-.013 14.976-6.724 14.976-15 0-1.151-.13-2.273-.376-3.351l-8.496-49.54 36.586-35.665c4.085-3.985 5.557-9.946 3.791-15.376z" fill="#e79d25"/><path d="m491.404 171.031c-1.764-5.43-6.457-9.387-12.107-10.208l-50.562-7.349-22.611-45.815c-2.526-5.12-7.741-8.361-13.451-8.361-5.709 0-10.924 3.241-13.451 8.361l-22.611 45.815-50.564 7.349c-5.65.82-10.345 4.778-12.108 10.209-1.765 5.43-.293 11.391 3.795 15.376l36.588 35.665-8.635 50.355c-.966 5.627 1.348 11.314 5.967 14.671 4.619 3.355 10.743 3.797 15.797 1.142l45.223-23.776 45.223 23.776c2.195 1.153 4.592 1.723 6.979 1.723h.062c8.266-.021 14.96-6.728 14.96-15 0-1.151-.13-2.273-.376-3.351l-8.496-49.54 36.586-35.665c4.086-3.986 5.558-9.947 3.792-15.377z" fill="#df6426"/><path d="m111.4 385.6h-96.4c-5.198 0-10.026 2.691-12.76 7.114-2.732 4.422-2.98 9.944-.656 14.594l20.746 41.491-20.746 41.493c-2.325 4.649-2.076 10.172.656 14.594 2.733 4.423 7.561 7.114 12.76 7.114h80.334c17.131 0 31.066-13.937 31.066-31.066v-80.334c0-8.284-6.715-15-15-15z" fill="#cf0050"/><path d="m489.67 448.799 20.746-41.49c2.326-4.65 2.078-10.173-.656-14.595-2.732-4.423-7.561-7.114-12.76-7.114h-96.4c-8.283 0-15 6.716-15 15v80.334c0 17.13 13.938 31.066 31.066 31.066h80.334c5.199 0 10.027-2.691 12.76-7.114 2.733-4.422 2.982-9.944.657-14.594z" fill="#dd4a4a"/></g><path d="m354.733 71.737c-1.765-5.431-6.458-9.388-12.108-10.209l-50.562-7.349-22.612-45.817c-2.527-5.121-7.74-8.362-13.451-8.362-5.709 0-10.924 3.241-13.451 8.361l-22.611 45.817-50.562 7.349c-5.65.82-10.345 4.778-12.109 10.209-1.764 5.43-.293 11.391 3.797 15.376l36.586 35.662-8.637 50.355c-.966 5.628 1.348 11.315 5.967 14.671 4.619 3.357 10.744 3.798 15.797 1.143l45.223-23.775 45.223 23.775c2.195 1.153 4.592 1.723 6.978 1.723h.058c8.269-.018 14.964-6.727 14.964-15 0-1.151-.129-2.273-.375-3.351l-8.496-49.541 36.586-35.662c4.087-3.985 5.56-9.946 3.795-15.375z" fill="#f2d231"/><path d="m384.533 337.401h-257.067c-17.129 0-31.066 13.937-31.066 31.066v64.266c0 17.13 13.938 31.066 31.066 31.066h257.066c17.131 0 31.066-13.936 31.066-31.066v-64.266c.001-17.13-13.934-31.066-31.065-31.066z" fill="#dd4a4a"/><path d="m308.201 190.666h.058c8.269-.018 14.964-6.727 14.964-15 0-1.151-.129-2.273-.375-3.351l-8.496-49.541 36.586-35.662c4.088-3.985 5.561-9.946 3.796-15.376-1.765-5.431-6.458-9.388-12.108-10.209l-50.562-7.349-22.613-45.816c-2.527-5.121-7.74-8.362-13.451-8.362v165.168l45.223 23.775c2.195 1.154 4.591 1.723 6.978 1.723z" fill="#e79d26"/><path d="m384.533 337.401h-128.533v126.398h128.533c17.131 0 31.066-13.936 31.066-31.066v-64.266c0-17.13-13.935-31.066-31.066-31.066z" fill="#cf0050"/></g></svg>