<svg height="512pt" viewBox="0 -97 512 512" width="512pt" xmlns="http://www.w3.org/2000/svg"><path d="m256 0c-141.320312 0-256 114.574219-256 256v31.03125c0 17.136719 13.890625 31.03125 31.03125 31.03125h449.9375c17.140625 0 31.03125-13.894531 31.03125-31.03125v-31.03125c0-141.417969-114.671875-256-256-256zm0 0" fill="#8b9ba9"/><path d="m31.03125 318.0625h449.9375c17.140625 0 31.03125-13.894531 31.03125-31.03125v-31.03125c0-94.757812-51.492188-177.464844-127.984375-221.726562l-.160156.273437c-8.328125 14.425781-4.488281 32.679687 8.734375 42.8125 53.691406 41.152344 88.378906 105.917969 88.378906 178.640625v7.757812c0 12.851563-10.417969 23.273438-23.273438 23.273438h-457.695312c0 17.136719 13.894531 31.03125 31.03125 31.03125zm0 0" fill="#6c7a88"/><path d="m356.824219 81.367188-100.824219 174.632812h201.695312c0-74.511719-40.617187-139.710938-100.871093-174.632812zm0 0" fill="#ff5368"/><path d="m376.285156 94.203125c-8.597656 14.890625-6.546875 33.679687 5.152344 46.28125.273438.296875.542969.589844.804688.878906 13.804687 15.234375 24.757812 32.824219 32.339843 51.847657 6.066407 15.226562-5.28125 31.761718-21.671875 31.761718-23.761718 0-94.203125 0-118.996094 0l-17.914062 31.027344h201.699219c-.003907-66.171875-32.039063-125-81.414063-161.796875zm0 0" fill="#e93d52"/><path d="m155.175781 81.367188 100.824219 174.632812 100.824219-174.632812c-29.679688-17.203126-64.121094-27.0625-100.824219-27.0625s-71.144531 9.859374-100.824219 27.0625zm0 0" fill="#ffcf5d"/><path d="m238.085938 224.96875 17.914062 31.03125 100.824219-174.632812c-8.9375-5.183594-18.320313-9.683594-28.054688-13.464844zm0 0" fill="#ffb545"/><path d="m256 256 100.824219-174.632812" fill="#ffb545"/><path d="m155.175781 81.367188c-60.253906 34.921874-100.871093 100.121093-100.871093 174.632812h201.695312zm0 0" fill="#a4d541"/><path d="m155.175781 81.367188c-9.015625 5.222656-17.585937 11.128906-25.648437 17.636718l52.570312 91.058594c8.960938 15.511719-2.238281 34.90625-20.152344 34.90625h-105.257812c-1.570312 10.117188-2.382812 20.480469-2.382812 31.03125h201.695312zm0 0" fill="#81b524"/><path d="m257.042969 224.988281c-6.042969-.199219-11.710938 1.339844-16.554688 4.140625l-111.097656-64.140625c-7.417969-4.285156-16.90625-1.742187-21.191406 5.679688-4.285157 7.417969-1.742188 16.90625 5.679687 21.191406l111.089844 64.140625c0 17.136719 13.894531 31.03125 31.03125 31.03125 17.785156 0 32.074219-14.960938 30.96875-32.984375-.964844-15.820313-14.085938-28.539063-29.925781-29.058594zm0 0" fill="#35404a"/></svg>