<svg width="73" height="98" viewBox="0 0 73 98" fill="none" xmlns="http://www.w3.org/2000/svg">
<g clip-path="url(#clip0)">
<path d="M50.3368 49L71.09 29.846C73.6367 27.4955 73.6367 23.6846 71.09 21.3322L66.4777 17.0754C63.931 14.7249 59.8019 14.7249 57.2532 17.0754L36.5 36.2294L15.7468 17.0754C13.2001 14.7249 9.07108 14.7249 6.5223 17.0754L1.91003 21.3322C-0.636676 23.6827 -0.636676 27.4936 1.91003 29.846L22.6632 49L1.91003 68.154C-0.636676 70.5045 -0.636676 74.3154 1.91003 76.6678L6.5223 80.9247C9.06901 83.2751 13.2001 83.2751 15.7468 80.9247L36.5 61.7706L57.2532 80.9247C59.7999 83.2751 63.931 83.2751 66.4777 80.9247L71.09 76.6678C73.6367 74.3173 73.6367 70.5064 71.09 68.154L50.3368 49Z" fill="#CB2501"/>
</g>
<defs>
<clipPath id="clip0">
<rect width="73" height="98" fill="white"/>
</clipPath>
</defs>
</svg>
